<?xml version="1.0" encoding="UTF-8"?>
<svg version="1.1" xmlns="http://www.w3.org/2000/svg" width="578" height="257">
<path d="M0 0 C0.64791504 0.34256836 1.29583008 0.68513672 1.96337891 1.03808594 C25.56073317 13.63821588 46.89920118 29.31831076 66 48 C66.63244629 48.61198242 67.26489258 49.22396484 67.91650391 49.85449219 C75.47473125 57.17572925 82.63318289 64.596228 89 73 C89.48291504 73.63357422 89.96583008 74.26714844 90.46337891 74.91992188 C114.4746546 106.61982815 129.49906157 142.23642185 136.875 181.25 C137.09043457 182.38050781 137.30586914 183.51101562 137.52783203 184.67578125 C140.3465636 200.35045091 140.3465636 200.35045091 137.79296875 205.375 C136.99826172 206.179375 136.99826172 206.179375 136.1875 207 C135.40439453 207.8353125 135.40439453 207.8353125 134.60546875 208.6875 C125.45091982 216.17151081 103.3162832 212.13635463 91.875 211.625 C91.08150146 211.59422363 90.28800293 211.56344727 89.47045898 211.53173828 C85.01409673 211.30281719 81.143494 210.81512577 77 209 C72.07716632 202.98320328 70.84300809 196.54160614 69.70776367 189.0559082 C65.63216437 162.40474924 53.24719977 140.54765021 31.48828125 124.1015625 C8.328175 108.42504342 -19.92125303 102.69274221 -47.4140625 107.25390625 C-64.85935294 110.88359086 -80.53553167 117.07502623 -94 129 C-94.65871094 129.5053125 -95.31742187 130.010625 -95.99609375 130.53125 C-111.39736915 142.67873482 -121.59438122 163.29831972 -124.35839844 182.48828125 C-124.73502582 185.79042843 -125.06039735 189.0880767 -125.28027344 192.40454102 C-125.7054925 198.21607784 -126.61187621 203.91786447 -130.28955078 208.66430664 C-134.32294194 211.8139902 -139.78229425 211.17321834 -144.6796875 211.203125 C-145.41067657 211.20882507 -146.14166565 211.21452515 -146.89480591 211.22039795 C-148.4362037 211.22981088 -149.97762128 211.23636712 -151.51904297 211.24023438 C-153.86071285 211.24994078 -156.20150439 211.28099827 -158.54296875 211.3125 C-160.04686984 211.3190313 -161.55077714 211.32428127 -163.0546875 211.328125 C-164.09252884 211.3466452 -164.09252884 211.3466452 -165.15133667 211.36553955 C-170.07499873 211.34328723 -173.73787252 210.47705588 -178 208 C-182.33539497 202.61292785 -181.46766224 195.52020791 -181.46875 188.9375 C-181.47636353 187.67284912 -181.48397705 186.40819824 -181.49182129 185.10522461 C-181.50261133 182.43538864 -181.50685303 179.76643996 -181.50097656 177.09667969 C-181.49507533 173.68678707 -181.52570458 170.27831581 -181.56609344 166.86869812 C-181.59825012 163.59999258 -181.59385412 160.33133926 -181.59375 157.0625 C-181.61014526 155.84361084 -181.62654053 154.62472168 -181.64343262 153.36889648 C-181.56654631 143.93817536 -181.56654631 143.93817536 -178.65405273 140.30493164 C-175.74740991 137.78063627 -173.03374156 136.10289335 -169.5625 134.4375 C-168.95776855 134.14431885 -168.35303711 133.8511377 -167.72998047 133.54907227 C-163.45691115 131.53065138 -159.10766662 129.94298115 -154.625 128.4375 C-146.18072408 125.53448465 -139.12669183 121.20539887 -135 113 C-130.56217199 99.66170053 -133.20768624 84.29717541 -134.59912109 70.54223633 C-134.87569315 67.80564146 -135.14000067 65.06807024 -135.40234375 62.33007812 C-136.63176613 41.36432073 -136.63176613 41.36432073 -142.1875 21.4375 C-144.04127785 19.75145885 -144.04127785 19.75145885 -147.125 19.3125 C-155.26079358 20.75594725 -160.90175841 27.67318521 -166.37109375 33.49609375 C-168 35 -168 35 -170 35 C-170.26167969 35.59554687 -170.52335937 36.19109375 -170.79296875 36.8046875 C-172.06807227 39.12380782 -173.30313384 40.42305349 -175.3125 42.125 C-175.88613281 42.62257813 -176.45976562 43.12015625 -177.05078125 43.6328125 C-182.57798775 47.50961065 -187.78667123 47.28101239 -194.3125 47.1875 C-195.28928711 47.17525391 -196.26607422 47.16300781 -197.27246094 47.15039062 C-199.25090449 47.12058113 -201.22927376 47.0853132 -203.20751953 47.04443359 C-205.69182744 47.0049036 -208.16818908 47.01859036 -210.65234375 47.05078125 C-218.87260529 47.02690735 -223.96337789 45.71574731 -230.08203125 40.0078125 C-231.03142578 39.01394531 -231.03142578 39.01394531 -232 38 C-232.58136719 37.46117188 -233.16273438 36.92234375 -233.76171875 36.3671875 C-235 35 -235 35 -235 33 C-235.53367188 32.77441406 -236.06734375 32.54882812 -236.6171875 32.31640625 C-239.7783914 30.56997065 -242.39987659 28.28137135 -245.125 25.9375 C-250.40288098 21.17137694 -250.40288098 21.17137694 -257.125 19.9375 C-259.043125 19.9684375 -259.043125 19.9684375 -261 20 C-265.25918845 31.61596849 -266.37990312 43.55478946 -267.5625 55.8125 C-267.68818359 57.06353516 -267.81386719 58.31457031 -267.94335938 59.60351562 C-269.16754795 72.04409163 -270.17362773 84.49404073 -270.25 97 C-270.270625 97.87527344 -270.29125 98.75054687 -270.3125 99.65234375 C-270.35476455 106.67882443 -268.83003154 111.79227885 -264.75 117.625 C-264.39421875 118.15351563 -264.0384375 118.68203125 -263.671875 119.2265625 C-259.07453456 124.10318063 -253.35878019 127.00879908 -247.25 129.5625 C-246.55479248 129.8620459 -245.85958496 130.1615918 -245.14331055 130.47021484 C-241.08312787 132.19884921 -236.99847048 133.72210352 -232.8125 135.125 C-228.4982807 136.6602402 -225.74851973 138.18753715 -223 142 C-220.80454017 147.96467361 -220.67832105 153.55310312 -220.6640625 159.8671875 C-220.6540773 161.41842819 -220.6540773 161.41842819 -220.64389038 163.00100708 C-220.63379929 165.18115469 -220.62907226 167.36133297 -220.62939453 169.54150391 C-220.62502291 172.8576193 -220.58866859 176.17240102 -220.55078125 179.48828125 C-220.54491187 181.61457882 -220.54094329 183.74088266 -220.5390625 185.8671875 C-220.52469147 186.84871796 -220.51032043 187.83024841 -220.49551392 188.84152222 C-220.54559896 196.47420409 -221.97087782 202.97087782 -227.5 208.5 C-233.68182576 212.20909546 -240.89042095 211.18396887 -247.875 211.1875 C-249.14214844 211.19974609 -250.40929687 211.21199219 -251.71484375 211.22460938 C-252.94074219 211.22654297 -254.16664063 211.22847656 -255.4296875 211.23046875 C-256.54585449 211.23457764 -257.66202148 211.23868652 -258.81201172 211.24291992 C-263.53124441 210.88332147 -266.93236685 209.83594737 -270.6640625 206.9140625 C-273.58058703 203.27572254 -274.8770317 199.74597134 -276.375 195.375 C-280.49814737 184.15751433 -285.97913617 175.65449064 -294.27734375 166.99609375 C-296 165 -296 165 -296 163 C-296.53882813 162.75636719 -297.07765625 162.51273438 -297.6328125 162.26171875 C-300.5823554 160.68960265 -303.16809385 158.77348812 -305.875 156.8125 C-325.41667491 143.00357174 -344.5604657 139.7909896 -368 140 C-367.99111755 140.75088898 -367.98223511 141.50177795 -367.9730835 142.27542114 C-367.89279271 149.36667919 -367.83196239 156.45777865 -367.79275131 163.54936409 C-367.77191429 167.1948912 -367.74366916 170.84004136 -367.69824219 174.48535156 C-367.65464357 178.00614987 -367.63083369 181.52658661 -367.62049103 185.04763412 C-367.60954994 187.03847947 -367.57834601 189.02918022 -367.54681396 191.01980591 C-367.54406061 202.14546312 -367.54406061 202.14546312 -372 207 C-372.43441406 207.59425781 -372.86882812 208.18851563 -373.31640625 208.80078125 C-384.41171212 216.70393415 -413.19544039 212.67565842 -426 211 C-432.8516624 209.00767263 -432.8516624 209.00767263 -435 206 C-438.82080063 197.3529249 -436.58272696 188.52160852 -434.8125 179.625 C-434.46868286 177.88972046 -434.46868286 177.88972046 -434.11791992 176.11938477 C-429.27533924 152.20883118 -421.46177223 129.08957981 -409 108 C-408.38753418 106.9478833 -408.38753418 106.9478833 -407.76269531 105.87451172 C-398.6118876 90.22181431 -388.22782454 76.07688618 -376.2644043 62.47167969 C-375.0939046 61.1092985 -373.9777853 59.70070147 -372.8671875 58.2890625 C-371.20389134 56.24995884 -369.59569856 54.65285425 -367.5625 53 C-364.51177623 50.50845762 -361.77311545 47.79754819 -359 45 C-338.62325189 24.78258354 -314.01337162 8.01751372 -287.98242188 -4.06542969 C-285.84029404 -5.07528995 -283.7253497 -6.13180041 -281.609375 -7.1953125 C-262.95788998 -16.46681838 -243.1360046 -22.79712661 -223 -28 C-221.89785156 -28.28568848 -221.89785156 -28.28568848 -220.7734375 -28.57714844 C-147.98758603 -46.87286474 -65.98908194 -34.94403301 0 0 Z " fill="#000000" transform="translate(437,40)"/>
<path d="M0 0 C11.22118573 8.60290906 19.63376234 20.19263453 23 33.96875 C23.3324687 36.82879417 23.41447984 39.65372972 23.4375 42.53125 C23.47037109 43.26021484 23.50324219 43.98917969 23.53710938 44.74023438 C23.57564529 48.63236162 23.20792483 51.26419825 20.84765625 54.43359375 C15.79341343 58.93318715 9.47893422 58.09720034 3.03515625 58.03125 C1.25903363 58.02269708 -0.51708944 58.01423703 -2.29321289 58.00585938 C-3.21538605 57.99965576 -4.1375592 57.99345215 -5.087677 57.98706055 C-23.83192561 57.85079604 -23.83192561 57.85079604 -42.5625 58.46875 C-89.37072759 60.93578811 -89.37072759 60.93578811 -96.83984375 54.53515625 C-100.80576883 49.82337908 -101.49273584 46.07867446 -101 39.96875 C-98.32153742 26.53458613 -92.26500994 13.25613995 -82 3.96875 C-81.44957031 3.42605469 -80.89914062 2.88335937 -80.33203125 2.32421875 C-57.81875388 -18.98216128 -24.30406539 -16.45587761 0 0 Z " fill="#000000" transform="translate(448,193.03125)"/>
</svg>
